<?xml version="1.0" encoding="utf-8" standalone="no"?>
<!DOCTYPE svg PUBLIC "-//W3C//DTD SVG 1.1//EN"
  "http://www.w3.org/Graphics/SVG/1.1/DTD/svg11.dtd">
<svg xmlns:xlink="http://www.w3.org/1999/xlink" width="756pt" height="417.6pt" viewBox="0 0 756 417.6" xmlns="http://www.w3.org/2000/svg" version="1.1">
 <metadata>
  <rdf:RDF xmlns:dc="http://purl.org/dc/elements/1.1/" xmlns:cc="http://creativecommons.org/ns#" xmlns:rdf="http://www.w3.org/1999/02/22-rdf-syntax-ns#">
   <cc:Work>
    <dc:type rdf:resource="http://purl.org/dc/dcmitype/StillImage"/>
    <dc:format>image/svg+xml</dc:format>
    <dc:creator>
     <cc:Agent>
      <dc:title>Matplotlib v3.11.0, https://matplotlib.org/</dc:title>
     </cc:Agent>
    </dc:creator>
   </cc:Work>
  </rdf:RDF>
 </metadata>
 <defs>
  <style type="text/css">*{stroke-linejoin: round; stroke-linecap: butt}</style>
 </defs>
 <g id="figure_1">
  <g id="patch_1">
   <path d="M 0 417.6
L 756 417.6
L 756 0
L 0 0
z
" style="fill: #ffffff"/>
  </g>
  <g id="axes_1">
   <g id="patch_2">
    <path d="M 39.904146 383.598979
L 745.048198 383.598979
L 745.048198 39.15774
L 39.904146 39.15774
z
" style="fill: #ffffff"/>
   </g>
   <g id="matplotlib.axis_1">
    <g id="xtick_1">
     <g id="line2d_1">
      <path d="M 39.904146 383.598979
L 39.904146 39.15774
" clip-path="url(#ped24299dbe)" style="fill: none; stroke: #e2e8f0; stroke-width: 0.8; stroke-linecap: square"/>
     </g>
     <g id="line2d_2">
      <defs>
       <path id="m1d75ae2b3d" d="M 0 0
L 0 3.5
" style="stroke: #000000; stroke-width: 0.8"/>
      </defs>
      <g>
       <use xlink:href="#m1d75ae2b3d" x="39.904146" y="383.598979" style="stroke: #000000; stroke-width: 0.8"/>
      </g>
     </g>
     <g id="text_1">
      <!-- 1.0 -->
      <g transform="translate(31.952584 398.196635) scale(0.1 -0.1)">
       <defs>
        <path id="DejaVuSans-14" d="M 794 531
L 1825 531
L 1825 4091
L 703 3866
L 703 4441
L 1819 4666
L 2450 4666
L 2450 531
L 3481 531
L 3481 0
L 794 0
L 794 531
z
" transform="scale(0.015625)"/>
        <path id="DejaVuSans-11" d="M 684 794
L 1344 794
L 1344 0
L 684 0
L 684 794
z
" transform="scale(0.015625)"/>
        <path id="DejaVuSans-13" d="M 2034 4250
Q 1547 4250 1301 3770
Q 1056 3291 1056 2328
Q 1056 1369 1301 889
Q 1547 409 2034 409
Q 2525 409 2770 889
Q 3016 1369 3016 2328
Q 3016 3291 2770 3770
Q 2525 4250 2034 4250
z
M 2034 4750
Q 2819 4750 3233 4129
Q 3647 3509 3647 2328
Q 3647 1150 3233 529
Q 2819 -91 2034 -91
Q 1250 -91 836 529
Q 422 1150 422 2328
Q 422 3509 836 4129
Q 1250 4750 2034 4750
z
" transform="scale(0.015625)"/>
       </defs>
       <use xlink:href="#DejaVuSans-14"/>
       <use xlink:href="#DejaVuSans-11" transform="translate(63.625 0)"/>
       <use xlink:href="#DejaVuSans-13" transform="translate(95.40625 0)"/>
      </g>
     </g>
    </g>
    <g id="xtick_2">
     <g id="line2d_3">
      <path d="M 180.932957 383.598979
L 180.932957 39.15774
" clip-path="url(#ped24299dbe)" style="fill: none; stroke: #e2e8f0; stroke-width: 0.8; stroke-linecap: square"/>
     </g>
     <g id="line2d_4">
      <g>
       <use xlink:href="#m1d75ae2b3d" x="180.932957" y="383.598979" style="stroke: #000000; stroke-width: 0.8"/>
      </g>
     </g>
     <g id="text_2">
      <!-- 1.2 -->
      <g transform="translate(172.981394 398.196635) scale(0.1 -0.1)">
       <defs>
        <path id="DejaVuSans-15" d="M 1228 531
L 3431 531
L 3431 0
L 469 0
L 469 531
Q 828 903 1448 1529
Q 2069 2156 2228 2338
Q 2531 2678 2651 2914
Q 2772 3150 2772 3378
Q 2772 3750 2511 3984
Q 2250 4219 1831 4219
Q 1534 4219 1204 4116
Q 875 4013 500 3803
L 500 4441
Q 881 4594 1212 4672
Q 1544 4750 1819 4750
Q 2544 4750 2975 4387
Q 3406 4025 3406 3419
Q 3406 3131 3298 2873
Q 3191 2616 2906 2266
Q 2828 2175 2409 1742
Q 1991 1309 1228 531
z
" transform="scale(0.015625)"/>
       </defs>
       <use xlink:href="#DejaVuSans-14"/>
       <use xlink:href="#DejaVuSans-11" transform="translate(63.625 0)"/>
       <use xlink:href="#DejaVuSans-15" transform="translate(95.40625 0)"/>
      </g>
     </g>
    </g>
    <g id="xtick_3">
     <g id="line2d_5">
      <path d="M 321.961767 383.598979
L 321.961767 39.15774
" clip-path="url(#ped24299dbe)" style="fill: none; stroke: #e2e8f0; stroke-width: 0.8; stroke-linecap: square"/>
     </g>
     <g id="line2d_6">
      <g>
       <use xlink:href="#m1d75ae2b3d" x="321.961767" y="383.598979" style="stroke: #000000; stroke-width: 0.8"/>
      </g>
     </g>
     <g id="text_3">
      <!-- 1.4 -->
      <g transform="translate(314.010204 398.196635) scale(0.1 -0.1)">
       <defs>
        <path id="DejaVuSans-17" d="M 2419 4116
L 825 1625
L 2419 1625
L 2419 4116
z
M 2253 4666
L 3047 4666
L 3047 1625
L 3713 1625
L 3713 1100
L 3047 1100
L 3047 0
L 2419 0
L 2419 1100
L 313 1100
L 313 1709
L 2253 4666
z
" transform="scale(0.015625)"/>
       </defs>
       <use xlink:href="#DejaVuSans-14"/>
       <use xlink:href="#DejaVuSans-11" transform="translate(63.625 0)"/>
       <use xlink:href="#DejaVuSans-17" transform="translate(95.40625 0)"/>
      </g>
     </g>
    </g>
    <g id="xtick_4">
     <g id="line2d_7">
      <path d="M 462.990577 383.598979
L 462.990577 39.15774
" clip-path="url(#ped24299dbe)" style="fill: none; stroke: #e2e8f0; stroke-width: 0.8; stroke-linecap: square"/>
     </g>
     <g id="line2d_8">
      <g>
       <use xlink:href="#m1d75ae2b3d" x="462.990577" y="383.598979" style="stroke: #000000; stroke-width: 0.8"/>
      </g>
     </g>
     <g id="text_4">
      <!-- 1.6 -->
      <g transform="translate(455.039015 398.196635) scale(0.1 -0.1)">
       <defs>
        <path id="DejaVuSans-19" d="M 2113 2584
Q 1688 2584 1439 2293
Q 1191 2003 1191 1497
Q 1191 994 1439 701
Q 1688 409 2113 409
Q 2538 409 2786 701
Q 3034 994 3034 1497
Q 3034 2003 2786 2293
Q 2538 2584 2113 2584
z
M 3366 4563
L 3366 3988
Q 3128 4100 2886 4159
Q 2644 4219 2406 4219
Q 1781 4219 1451 3797
Q 1122 3375 1075 2522
Q 1259 2794 1537 2939
Q 1816 3084 2150 3084
Q 2853 3084 3261 2657
Q 3669 2231 3669 1497
Q 3669 778 3244 343
Q 2819 -91 2113 -91
Q 1303 -91 875 529
Q 447 1150 447 2328
Q 447 3434 972 4092
Q 1497 4750 2381 4750
Q 2619 4750 2861 4703
Q 3103 4656 3366 4563
z
" transform="scale(0.015625)"/>
       </defs>
       <use xlink:href="#DejaVuSans-14"/>
       <use xlink:href="#DejaVuSans-11" transform="translate(63.625 0)"/>
       <use xlink:href="#DejaVuSans-19" transform="translate(95.40625 0)"/>
      </g>
     </g>
    </g>
    <g id="xtick_5">
     <g id="line2d_9">
      <path d="M 604.019387 383.598979
L 604.019387 39.15774
" clip-path="url(#ped24299dbe)" style="fill: none; stroke: #e2e8f0; stroke-width: 0.8; stroke-linecap: square"/>
     </g>
     <g id="line2d_10">
      <g>
       <use xlink:href="#m1d75ae2b3d" x="604.019387" y="383.598979" style="stroke: #000000; stroke-width: 0.8"/>
      </g>
     </g>
     <g id="text_5">
      <!-- 1.8 -->
      <g transform="translate(596.067825 398.196635) scale(0.1 -0.1)">
       <defs>
        <path id="DejaVuSans-1b" d="M 2034 2216
Q 1584 2216 1326 1975
Q 1069 1734 1069 1313
Q 1069 891 1326 650
Q 1584 409 2034 409
Q 2484 409 2743 651
Q 3003 894 3003 1313
Q 3003 1734 2745 1975
Q 2488 2216 2034 2216
z
M 1403 2484
Q 997 2584 770 2862
Q 544 3141 544 3541
Q 544 4100 942 4425
Q 1341 4750 2034 4750
Q 2731 4750 3128 4425
Q 3525 4100 3525 3541
Q 3525 3141 3298 2862
Q 3072 2584 2669 2484
Q 3125 2378 3379 2068
Q 3634 1759 3634 1313
Q 3634 634 3220 271
Q 2806 -91 2034 -91
Q 1263 -91 848 271
Q 434 634 434 1313
Q 434 1759 690 2068
Q 947 2378 1403 2484
z
M 1172 3481
Q 1172 3119 1398 2916
Q 1625 2713 2034 2713
Q 2441 2713 2670 2916
Q 2900 3119 2900 3481
Q 2900 3844 2670 4047
Q 2441 4250 2034 4250
Q 1625 4250 1398 4047
Q 1172 3844 1172 3481
z
" transform="scale(0.015625)"/>
       </defs>
       <use xlink:href="#DejaVuSans-14"/>
       <use xlink:href="#DejaVuSans-11" transform="translate(63.625 0)"/>
       <use xlink:href="#DejaVuSans-1b" transform="translate(95.40625 0)"/>
      </g>
     </g>
    </g>
    <g id="xtick_6">
     <g id="line2d_11">
      <path d="M 745.048198 383.598979
L 745.048198 39.15774
" clip-path="url(#ped24299dbe)" style="fill: none; stroke: #e2e8f0; stroke-width: 0.8; stroke-linecap: square"/>
     </g>
     <g id="line2d_12">
      <g>
       <use xlink:href="#m1d75ae2b3d" x="745.048198" y="383.598979" style="stroke: #000000; stroke-width: 0.8"/>
      </g>
     </g>
     <g id="text_6">
      <!-- 2.0 -->
      <g transform="translate(737.096635 398.196635) scale(0.1 -0.1)">
       <use xlink:href="#DejaVuSans-15"/>
       <use xlink:href="#DejaVuSans-11" transform="translate(63.625 0)"/>
       <use xlink:href="#DejaVuSans-13" transform="translate(95.40625 0)"/>
      </g>
     </g>
    </g>
    <g id="text_7">
     <!-- factor of fastest implementation (lower is better) -->
     <g transform="translate(269.958984 412.197416) scale(0.1 -0.1)">
      <defs>
       <path id="DejaVuSans-49" d="M 2375 4863
L 2375 4384
L 1825 4384
Q 1516 4384 1395 4259
Q 1275 4134 1275 3809
L 1275 3500
L 2222 3500
L 2222 3053
L 1275 3053
L 1275 0
L 697 0
L 697 3053
L 147 3053
L 147 3500
L 697 3500
L 697 3744
Q 697 4328 969 4595
Q 1241 4863 1831 4863
L 2375 4863
z
" transform="scale(0.015625)"/>
       <path id="DejaVuSans-44" d="M 2194 1759
Q 1497 1759 1228 1600
Q 959 1441 959 1056
Q 959 750 1161 570
Q 1363 391 1709 391
Q 2188 391 2477 730
Q 2766 1069 2766 1631
L 2766 1759
L 2194 1759
z
M 3341 1997
L 3341 0
L 2766 0
L 2766 531
Q 2569 213 2275 61
Q 1981 -91 1556 -91
Q 1019 -91 701 211
Q 384 513 384 1019
Q 384 1609 779 1909
Q 1175 2209 1959 2209
L 2766 2209
L 2766 2266
Q 2766 2663 2505 2880
Q 2244 3097 1772 3097
Q 1472 3097 1187 3025
Q 903 2953 641 2809
L 641 3341
Q 956 3463 1253 3523
Q 1550 3584 1831 3584
Q 2591 3584 2966 3190
Q 3341 2797 3341 1997
z
" transform="scale(0.015625)"/>
       <path id="DejaVuSans-46" d="M 3122 3366
L 3122 2828
Q 2878 2963 2633 3030
Q 2388 3097 2138 3097
Q 1578 3097 1268 2742
Q 959 2388 959 1747
Q 959 1106 1268 751
Q 1578 397 2138 397
Q 2388 397 2633 464
Q 2878 531 3122 666
L 3122 134
Q 2881 22 2623 -34
Q 2366 -91 2075 -91
Q 1284 -91 818 406
Q 353 903 353 1747
Q 353 2603 823 3093
Q 1294 3584 2113 3584
Q 2378 3584 2631 3529
Q 2884 3475 3122 3366
z
" transform="scale(0.015625)"/>
       <path id="DejaVuSans-57" d="M 1172 4494
L 1172 3500
L 2356 3500
L 2356 3053
L 1172 3053
L 1172 1153
Q 1172 725 1289 603
Q 1406 481 1766 481
L 2356 481
L 2356 0
L 1766 0
Q 1100 0 847 248
Q 594 497 594 1153
L 594 3053
L 172 3053
L 172 3500
L 594 3500
L 594 4494
L 1172 4494
z
" transform="scale(0.015625)"/>
       <path id="DejaVuSans-52" d="M 1959 3097
Q 1497 3097 1228 2736
Q 959 2375 959 1747
Q 959 1119 1226 758
Q 1494 397 1959 397
Q 2419 397 2687 759
Q 2956 1122 2956 1747
Q 2956 2369 2687 2733
Q 2419 3097 1959 3097
z
M 1959 3584
Q 2709 3584 3137 3096
Q 3566 2609 3566 1747
Q 3566 888 3137 398
Q 2709 -91 1959 -91
Q 1206 -91 779 398
Q 353 888 353 1747
Q 353 2609 779 3096
Q 1206 3584 1959 3584
z
" transform="scale(0.015625)"/>
       <path id="DejaVuSans-55" d="M 2631 2963
Q 2534 3019 2420 3045
Q 2306 3072 2169 3072
Q 1681 3072 1420 2755
Q 1159 2438 1159 1844
L 1159 0
L 581 0
L 581 3500
L 1159 3500
L 1159 2956
Q 1341 3275 1631 3429
Q 1922 3584 2338 3584
Q 2397 3584 2469 3576
Q 2541 3569 2628 3553
L 2631 2963
z
" transform="scale(0.015625)"/>
       <path id="DejaVuSans-3" transform="scale(0.015625)"/>
       <path id="DejaVuSans-56" d="M 2834 3397
L 2834 2853
Q 2591 2978 2328 3040
Q 2066 3103 1784 3103
Q 1356 3103 1142 2972
Q 928 2841 928 2578
Q 928 2378 1081 2264
Q 1234 2150 1697 2047
L 1894 2003
Q 2506 1872 2764 1633
Q 3022 1394 3022 966
Q 3022 478 2636 193
Q 2250 -91 1575 -91
Q 1294 -91 989 -36
Q 684 19 347 128
L 347 722
Q 666 556 975 473
Q 1284 391 1588 391
Q 1994 391 2212 530
Q 2431 669 2431 922
Q 2431 1156 2273 1281
Q 2116 1406 1581 1522
L 1381 1569
Q 847 1681 609 1914
Q 372 2147 372 2553
Q 372 3047 722 3315
Q 1072 3584 1716 3584
Q 2034 3584 2315 3537
Q 2597 3491 2834 3397
z
" transform="scale(0.015625)"/>
       <path id="DejaVuSans-48" d="M 3597 1894
L 3597 1613
L 953 1613
Q 991 1019 1311 708
Q 1631 397 2203 397
Q 2534 397 2845 478
Q 3156 559 3463 722
L 3463 178
Q 3153 47 2828 -22
Q 2503 -91 2169 -91
Q 1331 -91 842 396
Q 353 884 353 1716
Q 353 2575 817 3079
Q 1281 3584 2069 3584
Q 2775 3584 3186 3129
Q 3597 2675 3597 1894
z
M 3022 2063
Q 3016 2534 2758 2815
Q 2500 3097 2075 3097
Q 1594 3097 1305 2825
Q 1016 2553 972 2059
L 3022 2063
z
" transform="scale(0.015625)"/>
       <path id="DejaVuSans-4c" d="M 603 3500
L 1178 3500
L 1178 0
L 603 0
L 603 3500
z
M 603 4863
L 1178 4863
L 1178 4134
L 603 4134
L 603 4863
z
" transform="scale(0.015625)"/>
       <path id="DejaVuSans-50" d="M 3328 2828
Q 3544 3216 3844 3400
Q 4144 3584 4550 3584
Q 5097 3584 5394 3201
Q 5691 2819 5691 2113
L 5691 0
L 5113 0
L 5113 2094
Q 5113 2597 4934 2840
Q 4756 3084 4391 3084
Q 3944 3084 3684 2787
Q 3425 2491 3425 1978
L 3425 0
L 2847 0
L 2847 2094
Q 2847 2600 2669 2842
Q 2491 3084 2119 3084
Q 1678 3084 1418 2786
Q 1159 2488 1159 1978
L 1159 0
L 581 0
L 581 3500
L 1159 3500
L 1159 2956
Q 1356 3278 1631 3431
Q 1906 3584 2284 3584
Q 2666 3584 2933 3390
Q 3200 3197 3328 2828
z
" transform="scale(0.015625)"/>
       <path id="DejaVuSans-53" d="M 1159 525
L 1159 -1331
L 581 -1331
L 581 3500
L 1159 3500
L 1159 2969
Q 1341 3281 1617 3432
Q 1894 3584 2278 3584
Q 2916 3584 3314 3078
Q 3713 2572 3713 1747
Q 3713 922 3314 415
Q 2916 -91 2278 -91
Q 1894 -91 1617 61
Q 1341 213 1159 525
z
M 3116 1747
Q 3116 2381 2855 2742
Q 2594 3103 2138 3103
Q 1681 3103 1420 2742
Q 1159 2381 1159 1747
Q 1159 1113 1420 752
Q 1681 391 2138 391
Q 2594 391 2855 752
Q 3116 1113 3116 1747
z
" transform="scale(0.015625)"/>
       <path id="DejaVuSans-4f" d="M 603 4863
L 1178 4863
L 1178 0
L 603 0
L 603 4863
z
" transform="scale(0.015625)"/>
       <path id="DejaVuSans-51" d="M 3513 2113
L 3513 0
L 2938 0
L 2938 2094
Q 2938 2591 2744 2837
Q 2550 3084 2163 3084
Q 1697 3084 1428 2787
Q 1159 2491 1159 1978
L 1159 0
L 581 0
L 581 3500
L 1159 3500
L 1159 2956
Q 1366 3272 1645 3428
Q 1925 3584 2291 3584
Q 2894 3584 3203 3211
Q 3513 2838 3513 2113
z
" transform="scale(0.015625)"/>
       <path id="DejaVuSans-b" d="M 1984 4856
Q 1566 4138 1362 3434
Q 1159 2731 1159 2009
Q 1159 1288 1364 580
Q 1569 -128 1984 -844
L 1484 -844
Q 1016 -109 783 600
Q 550 1309 550 2009
Q 550 2706 781 3412
Q 1013 4119 1484 4856
L 1984 4856
z
" transform="scale(0.015625)"/>
       <path id="DejaVuSans-5a" d="M 269 3500
L 844 3500
L 1563 769
L 2278 3500
L 2956 3500
L 3675 769
L 4391 3500
L 4966 3500
L 4050 0
L 3372 0
L 2619 2869
L 1863 0
L 1184 0
L 269 3500
z
" transform="scale(0.015625)"/>
       <path id="DejaVuSans-45" d="M 3116 1747
Q 3116 2381 2855 2742
Q 2594 3103 2138 3103
Q 1681 3103 1420 2742
Q 1159 2381 1159 1747
Q 1159 1113 1420 752
Q 1681 391 2138 391
Q 2594 391 2855 752
Q 3116 1113 3116 1747
z
M 1159 2969
Q 1341 3281 1617 3432
Q 1894 3584 2278 3584
Q 2916 3584 3314 3078
Q 3713 2572 3713 1747
Q 3713 922 3314 415
Q 2916 -91 2278 -91
Q 1894 -91 1617 61
Q 1341 213 1159 525
L 1159 0
L 581 0
L 581 4863
L 1159 4863
L 1159 2969
z
" transform="scale(0.015625)"/>
       <path id="DejaVuSans-c" d="M 513 4856
L 1013 4856
Q 1481 4119 1714 3412
Q 1947 2706 1947 2009
Q 1947 1309 1714 600
Q 1481 -109 1013 -844
L 513 -844
Q 928 -128 1133 580
Q 1338 1288 1338 2009
Q 1338 2731 1133 3434
Q 928 4138 513 4856
z
" transform="scale(0.015625)"/>
      </defs>
      <use xlink:href="#DejaVuSans-49"/>
      <use xlink:href="#DejaVuSans-44" transform="translate(35.203125 0)"/>
      <use xlink:href="#DejaVuSans-46" transform="translate(96.484375 0)"/>
      <use xlink:href="#DejaVuSans-57" transform="translate(151.46875 0)"/>
      <use xlink:href="#DejaVuSans-52" transform="translate(190.671875 0)"/>
      <use xlink:href="#DejaVuSans-55" transform="translate(251.859375 0)"/>
      <use xlink:href="#DejaVuSans-3" transform="translate(292.96875 0)"/>
      <use xlink:href="#DejaVuSans-52" transform="translate(324.75 0)"/>
      <use xlink:href="#DejaVuSans-49" transform="translate(385.9375 0)"/>
      <use xlink:href="#DejaVuSans-3" transform="translate(421.140625 0)"/>
      <use xlink:href="#DejaVuSans-49" transform="translate(452.921875 0)"/>
      <use xlink:href="#DejaVuSans-44" transform="translate(488.125 0)"/>
      <use xlink:href="#DejaVuSans-56" transform="translate(549.40625 0)"/>
      <use xlink:href="#DejaVuSans-57" transform="translate(601.5 0)"/>
      <use xlink:href="#DejaVuSans-48" transform="translate(640.703125 0)"/>
      <use xlink:href="#DejaVuSans-56" transform="translate(702.234375 0)"/>
      <use xlink:href="#DejaVuSans-57" transform="translate(754.328125 0)"/>
      <use xlink:href="#DejaVuSans-3" transform="translate(793.53125 0)"/>
      <use xlink:href="#DejaVuSans-4c" transform="translate(825.3125 0)"/>
      <use xlink:href="#DejaVuSans-50" transform="translate(853.09375 0)"/>
      <use xlink:href="#DejaVuSans-53" transform="translate(950.5 0)"/>
      <use xlink:href="#DejaVuSans-4f" transform="translate(1013.984375 0)"/>
      <use xlink:href="#DejaVuSans-48" transform="translate(1041.765625 0)"/>
      <use xlink:href="#DejaVuSans-50" transform="translate(1103.296875 0)"/>
      <use xlink:href="#DejaVuSans-48" transform="translate(1200.703125 0)"/>
      <use xlink:href="#DejaVuSans-51" transform="translate(1262.234375 0)"/>
      <use xlink:href="#DejaVuSans-57" transform="translate(1325.609375 0)"/>
      <use xlink:href="#DejaVuSans-44" transform="translate(1364.8125 0)"/>
      <use xlink:href="#DejaVuSans-57" transform="translate(1426.09375 0)"/>
      <use xlink:href="#DejaVuSans-4c" transform="translate(1465.296875 0)"/>
      <use xlink:href="#DejaVuSans-52" transform="translate(1493.078125 0)"/>
      <use xlink:href="#DejaVuSans-51" transform="translate(1554.265625 0)"/>
      <use xlink:href="#DejaVuSans-3" transform="translate(1617.640625 0)"/>
      <use xlink:href="#DejaVuSans-b" transform="translate(1649.421875 0)"/>
      <use xlink:href="#DejaVuSans-4f" transform="translate(1688.4375 0)"/>
      <use xlink:href="#DejaVuSans-52" transform="translate(1716.21875 0)"/>
      <use xlink:href="#DejaVuSans-5a" transform="translate(1777.40625 0)"/>
      <use xlink:href="#DejaVuSans-48" transform="translate(1859.1875 0)"/>
      <use xlink:href="#DejaVuSans-55" transform="translate(1920.71875 0)"/>
      <use xlink:href="#DejaVuSans-3" transform="translate(1961.828125 0)"/>
      <use xlink:href="#DejaVuSans-4c" transform="translate(1993.609375 0)"/>
      <use xlink:href="#DejaVuSans-56" transform="translate(2021.390625 0)"/>
      <use xlink:href="#DejaVuSans-3" transform="translate(2073.484375 0)"/>
      <use xlink:href="#DejaVuSans-45" transform="translate(2105.265625 0)"/>
      <use xlink:href="#DejaVuSans-48" transform="translate(2168.75 0)"/>
      <use xlink:href="#DejaVuSans-57" transform="translate(2230.28125 0)"/>
      <use xlink:href="#DejaVuSans-57" transform="translate(2269.484375 0)"/>
      <use xlink:href="#DejaVuSans-48" transform="translate(2308.6875 0)"/>
      <use xlink:href="#DejaVuSans-55" transform="translate(2370.21875 0)"/>
      <use xlink:href="#DejaVuSans-c" transform="translate(2411.328125 0)"/>
     </g>
    </g>
   </g>
   <g id="matplotlib.axis_2">
    <g id="ytick_1">
     <g id="line2d_13">
      <path d="M 39.904146 383.598979
L 745.048198 383.598979
" clip-path="url(#ped24299dbe)" style="fill: none; stroke: #e2e8f0; stroke-width: 0.8; stroke-linecap: square"/>
     </g>
     <g id="line2d_14">
      <defs>
       <path id="mff6a726874" d="M 0 0
L -3.5 0
" style="stroke: #000000; stroke-width: 0.8"/>
      </defs>
      <g>
       <use xlink:href="#mff6a726874" x="39.904146" y="383.598979" style="stroke: #000000; stroke-width: 0.8"/>
      </g>
     </g>
     <g id="text_8">
      <!-- 0.0 -->
      <g transform="translate(17.001021 387.397807) scale(0.1 -0.1)">
       <use xlink:href="#DejaVuSans-13"/>
       <use xlink:href="#DejaVuSans-11" transform="translate(63.625 0)"/>
       <use xlink:href="#DejaVuSans-13" transform="translate(95.40625 0)"/>
      </g>
     </g>
    </g>
    <g id="ytick_2">
     <g id="line2d_15">
      <path d="M 39.904146 315.392793
L 745.048198 315.392793
" clip-path="url(#ped24299dbe)" style="fill: none; stroke: #e2e8f0; stroke-width: 0.8; stroke-linecap: square"/>
     </g>
     <g id="line2d_16">
      <g>
       <use xlink:href="#mff6a726874" x="39.904146" y="315.392793" style="stroke: #000000; stroke-width: 0.8"/>
      </g>
     </g>
     <g id="text_9">
      <!-- 0.2 -->
      <g transform="translate(17.001021 319.191621) scale(0.1 -0.1)">
       <use xlink:href="#DejaVuSans-13"/>
       <use xlink:href="#DejaVuSans-11" transform="translate(63.625 0)"/>
       <use xlink:href="#DejaVuSans-15" transform="translate(95.40625 0)"/>
      </g>
     </g>
    </g>
    <g id="ytick_3">
     <g id="line2d_17">
      <path d="M 39.904146 247.186607
L 745.048198 247.186607
" clip-path="url(#ped24299dbe)" style="fill: none; stroke: #e2e8f0; stroke-width: 0.8; stroke-linecap: square"/>
     </g>
     <g id="line2d_18">
      <g>
       <use xlink:href="#mff6a726874" x="39.904146" y="247.186607" style="stroke: #000000; stroke-width: 0.8"/>
      </g>
     </g>
     <g id="text_10">
      <!-- 0.4 -->
      <g transform="translate(17.001021 250.985435) scale(0.1 -0.1)">
       <use xlink:href="#DejaVuSans-13"/>
       <use xlink:href="#DejaVuSans-11" transform="translate(63.625 0)"/>
       <use xlink:href="#DejaVuSans-17" transform="translate(95.40625 0)"/>
      </g>
     </g>
    </g>
    <g id="ytick_4">
     <g id="line2d_19">
      <path d="M 39.904146 178.980421
L 745.048198 178.980421
" clip-path="url(#ped24299dbe)" style="fill: none; stroke: #e2e8f0; stroke-width: 0.8; stroke-linecap: square"/>
     </g>
     <g id="line2d_20">
      <g>
       <use xlink:href="#mff6a726874" x="39.904146" y="178.980421" style="stroke: #000000; stroke-width: 0.8"/>
      </g>
     </g>
     <g id="text_11">
      <!-- 0.6 -->
      <g transform="translate(17.001021 182.779249) scale(0.1 -0.1)">
       <use xlink:href="#DejaVuSans-13"/>
       <use xlink:href="#DejaVuSans-11" transform="translate(63.625 0)"/>
       <use xlink:href="#DejaVuSans-19" transform="translate(95.40625 0)"/>
      </g>
     </g>
    </g>
    <g id="ytick_5">
     <g id="line2d_21">
      <path d="M 39.904146 110.774235
L 745.048198 110.774235
" clip-path="url(#ped24299dbe)" style="fill: none; stroke: #e2e8f0; stroke-width: 0.8; stroke-linecap: square"/>
     </g>
     <g id="line2d_22">
      <g>
       <use xlink:href="#mff6a726874" x="39.904146" y="110.774235" style="stroke: #000000; stroke-width: 0.8"/>
      </g>
     </g>
     <g id="text_12">
      <!-- 0.8 -->
      <g transform="translate(17.001021 114.573063) scale(0.1 -0.1)">
       <use xlink:href="#DejaVuSans-13"/>
       <use xlink:href="#DejaVuSans-11" transform="translate(63.625 0)"/>
       <use xlink:href="#DejaVuSans-1b" transform="translate(95.40625 0)"/>
      </g>
     </g>
    </g>
    <g id="ytick_6">
     <g id="line2d_23">
      <path d="M 39.904146 42.568049
L 745.048198 42.568049
" clip-path="url(#ped24299dbe)" style="fill: none; stroke: #e2e8f0; stroke-width: 0.8; stroke-linecap: square"/>
     </g>
     <g id="line2d_24">
      <g>
       <use xlink:href="#mff6a726874" x="39.904146" y="42.568049" style="stroke: #000000; stroke-width: 0.8"/>
      </g>
     </g>
     <g id="text_13">
      <!-- 1.0 -->
      <g transform="translate(17.001021 46.366877) scale(0.1 -0.1)">
       <use xlink:href="#DejaVuSans-14"/>
       <use xlink:href="#DejaVuSans-11" transform="translate(63.625 0)"/>
       <use xlink:href="#DejaVuSans-13" transform="translate(95.40625 0)"/>
      </g>
     </g>
    </g>
    <g id="text_14">
     <!-- share of CPU workloads at or below factor -->
     <g transform="translate(10.598677 316.312734) rotate(-90) scale(0.1 -0.1)">
      <defs>
       <path id="DejaVuSans-4b" d="M 3513 2113
L 3513 0
L 2938 0
L 2938 2094
Q 2938 2591 2744 2837
Q 2550 3084 2163 3084
Q 1697 3084 1428 2787
Q 1159 2491 1159 1978
L 1159 0
L 581 0
L 581 4863
L 1159 4863
L 1159 2956
Q 1366 3272 1645 3428
Q 1925 3584 2291 3584
Q 2894 3584 3203 3211
Q 3513 2838 3513 2113
z
" transform="scale(0.015625)"/>
       <path id="DejaVuSans-26" d="M 4122 4306
L 4122 3641
Q 3803 3938 3442 4084
Q 3081 4231 2675 4231
Q 1875 4231 1450 3742
Q 1025 3253 1025 2328
Q 1025 1406 1450 917
Q 1875 428 2675 428
Q 3081 428 3442 575
Q 3803 722 4122 1019
L 4122 359
Q 3791 134 3420 21
Q 3050 -91 2638 -91
Q 1578 -91 968 557
Q 359 1206 359 2328
Q 359 3453 968 4101
Q 1578 4750 2638 4750
Q 3056 4750 3426 4639
Q 3797 4528 4122 4306
z
" transform="scale(0.015625)"/>
       <path id="DejaVuSans-33" d="M 1259 4147
L 1259 2394
L 2053 2394
Q 2494 2394 2734 2622
Q 2975 2850 2975 3272
Q 2975 3691 2734 3919
Q 2494 4147 2053 4147
L 1259 4147
z
M 628 4666
L 2053 4666
Q 2838 4666 3239 4311
Q 3641 3956 3641 3272
Q 3641 2581 3239 2228
Q 2838 1875 2053 1875
L 1259 1875
L 1259 0
L 628 0
L 628 4666
z
" transform="scale(0.015625)"/>
       <path id="DejaVuSans-38" d="M 556 4666
L 1191 4666
L 1191 1831
Q 1191 1081 1462 751
Q 1734 422 2344 422
Q 2950 422 3222 751
Q 3494 1081 3494 1831
L 3494 4666
L 4128 4666
L 4128 1753
Q 4128 841 3676 375
Q 3225 -91 2344 -91
Q 1459 -91 1007 375
Q 556 841 556 1753
L 556 4666
z
" transform="scale(0.015625)"/>
       <path id="DejaVuSans-4e" d="M 581 4863
L 1159 4863
L 1159 1991
L 2875 3500
L 3609 3500
L 1753 1863
L 3688 0
L 2938 0
L 1159 1709
L 1159 0
L 581 0
L 581 4863
z
" transform="scale(0.015625)"/>
       <path id="DejaVuSans-47" d="M 2906 2969
L 2906 4863
L 3481 4863
L 3481 0
L 2906 0
L 2906 525
Q 2725 213 2448 61
Q 2172 -91 1784 -91
Q 1150 -91 751 415
Q 353 922 353 1747
Q 353 2572 751 3078
Q 1150 3584 1784 3584
Q 2172 3584 2448 3432
Q 2725 3281 2906 2969
z
M 947 1747
Q 947 1113 1208 752
Q 1469 391 1925 391
Q 2381 391 2643 752
Q 2906 1113 2906 1747
Q 2906 2381 2643 2742
Q 2381 3103 1925 3103
Q 1469 3103 1208 2742
Q 947 2381 947 1747
z
" transform="scale(0.015625)"/>
      </defs>
      <use xlink:href="#DejaVuSans-56"/>
      <use xlink:href="#DejaVuSans-4b" transform="translate(52.09375 0)"/>
      <use xlink:href="#DejaVuSans-44" transform="translate(115.46875 0)"/>
      <use xlink:href="#DejaVuSans-55" transform="translate(176.75 0)"/>
      <use xlink:href="#DejaVuSans-48" transform="translate(215.65625 0)"/>
      <use xlink:href="#DejaVuSans-3" transform="translate(277.1875 0)"/>
      <use xlink:href="#DejaVuSans-52" transform="translate(308.96875 0)"/>
      <use xlink:href="#DejaVuSans-49" transform="translate(370.15625 0)"/>
      <use xlink:href="#DejaVuSans-3" transform="translate(405.359375 0)"/>
      <use xlink:href="#DejaVuSans-26" transform="translate(437.140625 0)"/>
      <use xlink:href="#DejaVuSans-33" transform="translate(506.96875 0)"/>
      <use xlink:href="#DejaVuSans-38" transform="translate(567.265625 0)"/>
      <use xlink:href="#DejaVuSans-3" transform="translate(640.453125 0)"/>
      <use xlink:href="#DejaVuSans-5a" transform="translate(672.234375 0)"/>
      <use xlink:href="#DejaVuSans-52" transform="translate(754.015625 0)"/>
      <use xlink:href="#DejaVuSans-55" transform="translate(815.203125 0)"/>
      <use xlink:href="#DejaVuSans-4e" transform="translate(856.3125 0)"/>
      <use xlink:href="#DejaVuSans-4f" transform="translate(914.21875 0)"/>
      <use xlink:href="#DejaVuSans-52" transform="translate(942 0)"/>
      <use xlink:href="#DejaVuSans-44" transform="translate(1003.1875 0)"/>
      <use xlink:href="#DejaVuSans-47" transform="translate(1064.46875 0)"/>
      <use xlink:href="#DejaVuSans-56" transform="translate(1127.953125 0)"/>
      <use xlink:href="#DejaVuSans-3" transform="translate(1180.046875 0)"/>
      <use xlink:href="#DejaVuSans-44" transform="translate(1211.828125 0)"/>
      <use xlink:href="#DejaVuSans-57" transform="translate(1273.109375 0)"/>
      <use xlink:href="#DejaVuSans-3" transform="translate(1312.3125 0)"/>
      <use xlink:href="#DejaVuSans-52" transform="translate(1344.09375 0)"/>
      <use xlink:href="#DejaVuSans-55" transform="translate(1405.28125 0)"/>
      <use xlink:href="#DejaVuSans-3" transform="translate(1446.390625 0)"/>
      <use xlink:href="#DejaVuSans-45" transform="translate(1478.171875 0)"/>
      <use xlink:href="#DejaVuSans-48" transform="translate(1541.65625 0)"/>
      <use xlink:href="#DejaVuSans-4f" transform="translate(1603.1875 0)"/>
      <use xlink:href="#DejaVuSans-52" transform="translate(1630.96875 0)"/>
      <use xlink:href="#DejaVuSans-5a" transform="translate(1692.15625 0)"/>
      <use xlink:href="#DejaVuSans-3" transform="translate(1773.9375 0)"/>
      <use xlink:href="#DejaVuSans-49" transform="translate(1805.71875 0)"/>
      <use xlink:href="#DejaVuSans-44" transform="translate(1840.921875 0)"/>
      <use xlink:href="#DejaVuSans-46" transform="translate(1902.203125 0)"/>
      <use xlink:href="#DejaVuSans-57" transform="translate(1957.1875 0)"/>
      <use xlink:href="#DejaVuSans-52" transform="translate(1996.390625 0)"/>
      <use xlink:href="#DejaVuSans-55" transform="translate(2057.578125 0)"/>
     </g>
    </g>
   </g>
   <g id="line2d_25">
    <path d="M 39.904146 259.587732
L 43.429867 228.58492
L 46.955587 228.58492
L 57.532748 182.080702
L 82.212789 182.080702
L 85.73851 166.579296
L 106.892831 166.579296
L 110.418551 151.07789
L 128.047153 151.07789
L 131.572873 135.576485
L 191.510117 135.576485
L 195.035838 120.075079
L 336.064648 120.075079
L 339.590368 104.573673
L 424.207654 104.573673
L 427.733374 89.072267
L 582.865066 89.072267
L 586.390786 73.570861
L 593.442226 73.570861
L 596.967947 58.069455
L 745.048198 58.069455
L 745.048198 58.069455
" clip-path="url(#ped24299dbe)" style="fill: none; stroke: #64748b; stroke-width: 2.4; stroke-linecap: square"/>
   </g>
   <g id="line2d_26">
    <path d="M 39.904146 352.596167
L 43.429867 290.590543
L 54.007027 244.086326
L 57.532748 213.083514
L 75.161349 213.083514
L 78.687069 197.582108
L 85.73851 197.582108
L 89.26423 182.080702
L 96.31567 182.080702
L 99.841391 166.579296
L 106.892831 166.579296
L 110.418551 151.07789
L 113.944272 151.07789
L 117.469992 135.576485
L 205.612998 135.576485
L 209.138719 120.075079
L 265.550243 120.075079
L 269.075963 104.573673
L 276.127403 104.573673
L 279.653124 89.072267
L 307.858886 89.072267
L 311.384606 73.570861
L 494.722059 73.570861
L 498.24778 58.069455
L 745.048198 58.069455
L 745.048198 58.069455
" clip-path="url(#ped24299dbe)" style="fill: none; stroke: #e11d48; stroke-width: 2.4; stroke-linecap: square"/>
   </g>
   <g id="line2d_27">
    <path d="M 39.904146 321.593355
L 43.429867 275.089138
L 50.481307 244.086326
L 68.109908 244.086326
L 71.635629 228.58492
L 96.31567 228.58492
L 99.841391 213.083514
L 106.892831 213.083514
L 110.418551 197.582108
L 226.76732 197.582108
L 230.29304 182.080702
L 254.973082 182.080702
L 258.498802 166.579296
L 262.024522 166.579296
L 265.550243 151.07789
L 350.167529 151.07789
L 353.693249 135.576485
L 431.259095 135.576485
L 438.310535 104.573673
L 505.29922 104.573673
L 508.82494 89.072267
L 745.048198 89.072267
L 745.048198 89.072267
" clip-path="url(#ped24299dbe)" style="fill: none; stroke: #7c3aed; stroke-width: 2.4; stroke-linecap: square"/>
   </g>
   <g id="line2d_28">
    <path d="M 39.904146 306.091949
L 43.429867 290.590543
L 46.955587 290.590543
L 50.481307 275.089138
L 78.687069 275.089138
L 82.212789 259.587732
L 128.047153 259.587732
L 131.572873 244.086326
L 198.561558 244.086326
L 202.087278 228.58492
L 205.612998 228.58492
L 209.138719 213.083514
L 244.395921 213.083514
L 247.921641 197.582108
L 254.973082 197.582108
L 258.498802 182.080702
L 487.670619 182.080702
L 491.196339 166.579296
L 537.030702 166.579296
L 540.556423 151.07789
L 551.133583 151.07789
L 554.659304 135.576485
L 674.533792 135.576485
L 678.059513 120.075079
L 745.048198 120.075079
L 745.048198 120.075079
" clip-path="url(#ped24299dbe)" style="fill: none; stroke: #0284c7; stroke-width: 2.4; stroke-linecap: square"/>
   </g>
   <g id="line2d_29">
    <path d="M 39.904146 337.094761
L 43.429867 306.091949
L 61.058468 306.091949
L 64.584188 290.590543
L 124.521432 290.590543
L 131.572873 259.587732
L 184.458677 259.587732
L 187.984397 244.086326
L 209.138719 244.086326
L 212.664439 213.083514
L 247.921641 213.083514
L 251.447362 197.582108
L 434.784815 197.582108
L 438.310535 182.080702
L 480.619178 182.080702
L 484.144899 166.579296
L 491.196339 166.579296
L 494.722059 151.07789
L 544.082143 151.07789
L 547.607863 135.576485
L 568.762185 135.576485
L 572.287905 120.075079
L 663.956632 120.075079
L 667.482352 104.573673
L 745.048198 104.573673
L 745.048198 104.573673
" clip-path="url(#ped24299dbe)" style="fill: none; stroke: #059669; stroke-width: 2.4; stroke-linecap: square"/>
   </g>
   <g id="patch_3">
    <path d="M 39.904146 383.598979
L 39.904146 39.15774
" style="fill: none; stroke: #000000; stroke-width: 0.8; stroke-linejoin: miter; stroke-linecap: square"/>
   </g>
   <g id="patch_4">
    <path d="M 745.048198 383.598979
L 745.048198 39.15774
" style="fill: none; stroke: #000000; stroke-width: 0.8; stroke-linejoin: miter; stroke-linecap: square"/>
   </g>
   <g id="patch_5">
    <path d="M 39.904146 383.598979
L 745.048198 383.598979
" style="fill: none; stroke: #000000; stroke-width: 0.8; stroke-linejoin: miter; stroke-linecap: square"/>
   </g>
   <g id="patch_6">
    <path d="M 39.904146 39.15774
L 745.048198 39.15774
" style="fill: none; stroke: #000000; stroke-width: 0.8; stroke-linejoin: miter; stroke-linecap: square"/>
   </g>
   <g id="text_15">
    <!-- linux-x86_64 · every workload retained · higher and further left is better -->
    <g style="fill: #475569" transform="translate(39.904146 33.991121) scale(0.09 -0.09)">
     <defs>
      <path id="DejaVuSans-58" d="M 544 1381
L 544 3500
L 1119 3500
L 1119 1403
Q 1119 906 1312 657
Q 1506 409 1894 409
Q 2359 409 2629 706
Q 2900 1003 2900 1516
L 2900 3500
L 3475 3500
L 3475 0
L 2900 0
L 2900 538
Q 2691 219 2414 64
Q 2138 -91 1772 -91
Q 1169 -91 856 284
Q 544 659 544 1381
z
M 1991 3584
L 1991 3584
z
" transform="scale(0.015625)"/>
      <path id="DejaVuSans-5b" d="M 3513 3500
L 2247 1797
L 3578 0
L 2900 0
L 1881 1375
L 863 0
L 184 0
L 1544 1831
L 300 3500
L 978 3500
L 1906 2253
L 2834 3500
L 3513 3500
z
" transform="scale(0.015625)"/>
      <path id="DejaVuSans-10" d="M 313 2009
L 1997 2009
L 1997 1497
L 313 1497
L 313 2009
z
" transform="scale(0.015625)"/>
      <path id="DejaVuSans-42" d="M 3263 -1063
L 3263 -1509
L -63 -1509
L -63 -1063
L 3263 -1063
z
" transform="scale(0.015625)"/>
      <path id="DejaVuSans-79" d="M 684 2619
L 1344 2619
L 1344 1825
L 684 1825
L 684 2619
z
" transform="scale(0.015625)"/>
      <path id="DejaVuSans-59" d="M 191 3500
L 800 3500
L 1894 563
L 2988 3500
L 3597 3500
L 2284 0
L 1503 0
L 191 3500
z
" transform="scale(0.015625)"/>
      <path id="DejaVuSans-5c" d="M 2059 -325
Q 1816 -950 1584 -1140
Q 1353 -1331 966 -1331
L 506 -1331
L 506 -850
L 844 -850
Q 1081 -850 1212 -737
Q 1344 -625 1503 -206
L 1606 56
L 191 3500
L 800 3500
L 1894 763
L 2988 3500
L 3597 3500
L 2059 -325
z
" transform="scale(0.015625)"/>
      <path id="DejaVuSans-4a" d="M 2906 1791
Q 2906 2416 2648 2759
Q 2391 3103 1925 3103
Q 1463 3103 1205 2759
Q 947 2416 947 1791
Q 947 1169 1205 825
Q 1463 481 1925 481
Q 2391 481 2648 825
Q 2906 1169 2906 1791
z
M 3481 434
Q 3481 -459 3084 -895
Q 2688 -1331 1869 -1331
Q 1566 -1331 1297 -1286
Q 1028 -1241 775 -1147
L 775 -588
Q 1028 -725 1275 -790
Q 1522 -856 1778 -856
Q 2344 -856 2625 -561
Q 2906 -266 2906 331
L 2906 616
Q 2728 306 2450 153
Q 2172 0 1784 0
Q 1141 0 747 490
Q 353 981 353 1791
Q 353 2603 747 3093
Q 1141 3584 1784 3584
Q 2172 3584 2450 3431
Q 2728 3278 2906 2969
L 2906 3500
L 3481 3500
L 3481 434
z
" transform="scale(0.015625)"/>
     </defs>
     <use xlink:href="#DejaVuSans-4f"/>
     <use xlink:href="#DejaVuSans-4c" transform="translate(27.78125 0)"/>
     <use xlink:href="#DejaVuSans-51" transform="translate(55.5625 0)"/>
     <use xlink:href="#DejaVuSans-58" transform="translate(118.9375 0)"/>
     <use xlink:href="#DejaVuSans-5b" transform="translate(182.3125 0)"/>
     <use xlink:href="#DejaVuSans-10" transform="translate(241.5 0)"/>
     <use xlink:href="#DejaVuSans-5b" transform="translate(277.578125 0)"/>
     <use xlink:href="#DejaVuSans-1b" transform="translate(336.765625 0)"/>
     <use xlink:href="#DejaVuSans-19" transform="translate(400.390625 0)"/>
     <use xlink:href="#DejaVuSans-42" transform="translate(464.015625 0)"/>
     <use xlink:href="#DejaVuSans-19" transform="translate(514.015625 0)"/>
     <use xlink:href="#DejaVuSans-17" transform="translate(577.640625 0)"/>
     <use xlink:href="#DejaVuSans-3" transform="translate(641.265625 0)"/>
     <use xlink:href="#DejaVuSans-79" transform="translate(673.046875 0)"/>
     <use xlink:href="#DejaVuSans-3" transform="translate(704.828125 0)"/>
     <use xlink:href="#DejaVuSans-48" transform="translate(736.609375 0)"/>
     <use xlink:href="#DejaVuSans-59" transform="translate(798.140625 0)"/>
     <use xlink:href="#DejaVuSans-48" transform="translate(857.328125 0)"/>
     <use xlink:href="#DejaVuSans-55" transform="translate(918.859375 0)"/>
     <use xlink:href="#DejaVuSans-5c" transform="translate(959.96875 0)"/>
     <use xlink:href="#DejaVuSans-3" transform="translate(1019.15625 0)"/>
     <use xlink:href="#DejaVuSans-5a" transform="translate(1050.9375 0)"/>
     <use xlink:href="#DejaVuSans-52" transform="translate(1132.71875 0)"/>
     <use xlink:href="#DejaVuSans-55" transform="translate(1193.90625 0)"/>
     <use xlink:href="#DejaVuSans-4e" transform="translate(1235.015625 0)"/>
     <use xlink:href="#DejaVuSans-4f" transform="translate(1292.921875 0)"/>
     <use xlink:href="#DejaVuSans-52" transform="translate(1320.703125 0)"/>
     <use xlink:href="#DejaVuSans-44" transform="translate(1381.890625 0)"/>
     <use xlink:href="#DejaVuSans-47" transform="translate(1443.171875 0)"/>
     <use xlink:href="#DejaVuSans-3" transform="translate(1506.65625 0)"/>
     <use xlink:href="#DejaVuSans-55" transform="translate(1538.4375 0)"/>
     <use xlink:href="#DejaVuSans-48" transform="translate(1577.34375 0)"/>
     <use xlink:href="#DejaVuSans-57" transform="translate(1638.875 0)"/>
     <use xlink:href="#DejaVuSans-44" transform="translate(1678.078125 0)"/>
     <use xlink:href="#DejaVuSans-4c" transform="translate(1739.359375 0)"/>
     <use xlink:href="#DejaVuSans-51" transform="translate(1767.140625 0)"/>
     <use xlink:href="#DejaVuSans-48" transform="translate(1830.515625 0)"/>
     <use xlink:href="#DejaVuSans-47" transform="translate(1892.046875 0)"/>
     <use xlink:href="#DejaVuSans-3" transform="translate(1955.53125 0)"/>
     <use xlink:href="#DejaVuSans-79" transform="translate(1987.3125 0)"/>
     <use xlink:href="#DejaVuSans-3" transform="translate(2019.09375 0)"/>
     <use xlink:href="#DejaVuSans-4b" transform="translate(2050.875 0)"/>
     <use xlink:href="#DejaVuSans-4c" transform="translate(2114.25 0)"/>
     <use xlink:href="#DejaVuSans-4a" transform="translate(2142.03125 0)"/>
     <use xlink:href="#DejaVuSans-4b" transform="translate(2205.515625 0)"/>
     <use xlink:href="#DejaVuSans-48" transform="translate(2268.890625 0)"/>
     <use xlink:href="#DejaVuSans-55" transform="translate(2330.421875 0)"/>
     <use xlink:href="#DejaVuSans-3" transform="translate(2371.53125 0)"/>
     <use xlink:href="#DejaVuSans-44" transform="translate(2403.3125 0)"/>
     <use xlink:href="#DejaVuSans-51" transform="translate(2464.59375 0)"/>
     <use xlink:href="#DejaVuSans-47" transform="translate(2527.96875 0)"/>
     <use xlink:href="#DejaVuSans-3" transform="translate(2591.453125 0)"/>
     <use xlink:href="#DejaVuSans-49" transform="translate(2623.234375 0)"/>
     <use xlink:href="#DejaVuSans-58" transform="translate(2658.4375 0)"/>
     <use xlink:href="#DejaVuSans-55" transform="translate(2721.8125 0)"/>
     <use xlink:href="#DejaVuSans-57" transform="translate(2762.921875 0)"/>
     <use xlink:href="#DejaVuSans-4b" transform="translate(2802.125 0)"/>
     <use xlink:href="#DejaVuSans-48" transform="translate(2865.5 0)"/>
     <use xlink:href="#DejaVuSans-55" transform="translate(2927.03125 0)"/>
     <use xlink:href="#DejaVuSans-3" transform="translate(2968.140625 0)"/>
     <use xlink:href="#DejaVuSans-4f" transform="translate(2999.921875 0)"/>
     <use xlink:href="#DejaVuSans-48" transform="translate(3027.703125 0)"/>
     <use xlink:href="#DejaVuSans-49" transform="translate(3089.234375 0)"/>
     <use xlink:href="#DejaVuSans-57" transform="translate(3122.6875 0)"/>
     <use xlink:href="#DejaVuSans-3" transform="translate(3161.890625 0)"/>
     <use xlink:href="#DejaVuSans-4c" transform="translate(3193.671875 0)"/>
     <use xlink:href="#DejaVuSans-56" transform="translate(3221.453125 0)"/>
     <use xlink:href="#DejaVuSans-3" transform="translate(3273.546875 0)"/>
     <use xlink:href="#DejaVuSans-45" transform="translate(3305.328125 0)"/>
     <use xlink:href="#DejaVuSans-48" transform="translate(3368.8125 0)"/>
     <use xlink:href="#DejaVuSans-57" transform="translate(3430.34375 0)"/>
     <use xlink:href="#DejaVuSans-57" transform="translate(3469.546875 0)"/>
     <use xlink:href="#DejaVuSans-48" transform="translate(3508.75 0)"/>
     <use xlink:href="#DejaVuSans-55" transform="translate(3570.28125 0)"/>
    </g>
   </g>
   <g id="text_16">
    <!-- CPU performance profile -->
    <g transform="translate(39.904146 15.15774) scale(0.16 -0.16)">
     <defs>
      <path id="DejaVuSans-Bold-26" d="M 4288 256
Q 3956 84 3597 -3
Q 3238 -91 2847 -91
Q 1681 -91 1000 561
Q 319 1213 319 2328
Q 319 3447 1000 4098
Q 1681 4750 2847 4750
Q 3238 4750 3597 4662
Q 3956 4575 4288 4403
L 4288 3438
Q 3953 3666 3628 3772
Q 3303 3878 2944 3878
Q 2300 3878 1931 3465
Q 1563 3053 1563 2328
Q 1563 1606 1931 1193
Q 2300 781 2944 781
Q 3303 781 3628 887
Q 3953 994 4288 1222
L 4288 256
z
" transform="scale(0.015625)"/>
      <path id="DejaVuSans-Bold-33" d="M 588 4666
L 2584 4666
Q 3475 4666 3951 4270
Q 4428 3875 4428 3144
Q 4428 2409 3951 2014
Q 3475 1619 2584 1619
L 1791 1619
L 1791 0
L 588 0
L 588 4666
z
M 1791 3794
L 1791 2491
L 2456 2491
Q 2806 2491 2997 2661
Q 3188 2831 3188 3144
Q 3188 3456 2997 3625
Q 2806 3794 2456 3794
L 1791 3794
z
" transform="scale(0.015625)"/>
      <path id="DejaVuSans-Bold-38" d="M 588 4666
L 1791 4666
L 1791 1869
Q 1791 1291 1980 1042
Q 2169 794 2597 794
Q 3028 794 3217 1042
Q 3406 1291 3406 1869
L 3406 4666
L 4609 4666
L 4609 1869
Q 4609 878 4112 393
Q 3616 -91 2597 -91
Q 1581 -91 1084 393
Q 588 878 588 1869
L 588 4666
z
" transform="scale(0.015625)"/>
      <path id="DejaVuSans-Bold-3" transform="scale(0.015625)"/>
      <path id="DejaVuSans-Bold-53" d="M 1656 506
L 1656 -1331
L 538 -1331
L 538 3500
L 1656 3500
L 1656 2988
Q 1888 3294 2169 3439
Q 2450 3584 2816 3584
Q 3463 3584 3878 3070
Q 4294 2556 4294 1747
Q 4294 938 3878 423
Q 3463 -91 2816 -91
Q 2450 -91 2169 54
Q 1888 200 1656 506
z
M 2400 2772
Q 2041 2772 1848 2508
Q 1656 2244 1656 1747
Q 1656 1250 1848 986
Q 2041 722 2400 722
Q 2759 722 2948 984
Q 3138 1247 3138 1747
Q 3138 2247 2948 2509
Q 2759 2772 2400 2772
z
" transform="scale(0.015625)"/>
      <path id="DejaVuSans-Bold-48" d="M 4031 1759
L 4031 1441
L 1416 1441
Q 1456 1047 1700 850
Q 1944 653 2381 653
Q 2734 653 3104 758
Q 3475 863 3866 1075
L 3866 213
Q 3469 63 3072 -14
Q 2675 -91 2278 -91
Q 1328 -91 801 392
Q 275 875 275 1747
Q 275 2603 792 3093
Q 1309 3584 2216 3584
Q 3041 3584 3536 3087
Q 4031 2591 4031 1759
z
M 2881 2131
Q 2881 2450 2695 2645
Q 2509 2841 2209 2841
Q 1884 2841 1681 2658
Q 1478 2475 1428 2131
L 2881 2131
z
" transform="scale(0.015625)"/>
      <path id="DejaVuSans-Bold-55" d="M 3138 2547
Q 2991 2616 2845 2648
Q 2700 2681 2553 2681
Q 2122 2681 1889 2404
Q 1656 2128 1656 1613
L 1656 0
L 538 0
L 538 3500
L 1656 3500
L 1656 2925
Q 1872 3269 2151 3426
Q 2431 3584 2822 3584
Q 2878 3584 2943 3579
Q 3009 3575 3134 3559
L 3138 2547
z
" transform="scale(0.015625)"/>
      <path id="DejaVuSans-Bold-49" d="M 2841 4863
L 2841 4128
L 2222 4128
Q 1984 4128 1890 4042
Q 1797 3956 1797 3744
L 1797 3500
L 2753 3500
L 2753 2700
L 1797 2700
L 1797 0
L 678 0
L 678 2700
L 122 2700
L 122 3500
L 678 3500
L 678 3744
Q 678 4316 997 4589
Q 1316 4863 1984 4863
L 2841 4863
z
" transform="scale(0.015625)"/>
      <path id="DejaVuSans-Bold-52" d="M 2203 2784
Q 1831 2784 1636 2517
Q 1441 2250 1441 1747
Q 1441 1244 1636 976
Q 1831 709 2203 709
Q 2569 709 2762 976
Q 2956 1244 2956 1747
Q 2956 2250 2762 2517
Q 2569 2784 2203 2784
z
M 2203 3584
Q 3106 3584 3614 3096
Q 4122 2609 4122 1747
Q 4122 884 3614 396
Q 3106 -91 2203 -91
Q 1297 -91 786 396
Q 275 884 275 1747
Q 275 2609 786 3096
Q 1297 3584 2203 3584
z
" transform="scale(0.015625)"/>
      <path id="DejaVuSans-Bold-50" d="M 3781 2919
Q 3994 3244 4286 3414
Q 4578 3584 4928 3584
Q 5531 3584 5847 3212
Q 6163 2841 6163 2131
L 6163 0
L 5038 0
L 5038 1825
Q 5041 1866 5042 1909
Q 5044 1953 5044 2034
Q 5044 2406 4934 2573
Q 4825 2741 4581 2741
Q 4263 2741 4089 2478
Q 3916 2216 3909 1719
L 3909 0
L 2784 0
L 2784 1825
Q 2784 2406 2684 2573
Q 2584 2741 2328 2741
Q 2006 2741 1831 2477
Q 1656 2213 1656 1722
L 1656 0
L 531 0
L 531 3500
L 1656 3500
L 1656 2988
Q 1863 3284 2130 3434
Q 2397 3584 2719 3584
Q 3081 3584 3359 3409
Q 3638 3234 3781 2919
z
" transform="scale(0.015625)"/>
      <path id="DejaVuSans-Bold-44" d="M 2106 1575
Q 1756 1575 1579 1456
Q 1403 1338 1403 1106
Q 1403 894 1545 773
Q 1688 653 1941 653
Q 2256 653 2472 879
Q 2688 1106 2688 1447
L 2688 1575
L 2106 1575
z
M 3816 1997
L 3816 0
L 2688 0
L 2688 519
Q 2463 200 2181 54
Q 1900 -91 1497 -91
Q 953 -91 614 226
Q 275 544 275 1050
Q 275 1666 698 1953
Q 1122 2241 2028 2241
L 2688 2241
L 2688 2328
Q 2688 2594 2478 2717
Q 2269 2841 1825 2841
Q 1466 2841 1156 2769
Q 847 2697 581 2553
L 581 3406
Q 941 3494 1303 3539
Q 1666 3584 2028 3584
Q 2975 3584 3395 3211
Q 3816 2838 3816 1997
z
" transform="scale(0.015625)"/>
      <path id="DejaVuSans-Bold-51" d="M 4056 2131
L 4056 0
L 2931 0
L 2931 347
L 2931 1631
Q 2931 2084 2911 2256
Q 2891 2428 2841 2509
Q 2775 2619 2662 2680
Q 2550 2741 2406 2741
Q 2056 2741 1856 2470
Q 1656 2200 1656 1722
L 1656 0
L 538 0
L 538 3500
L 1656 3500
L 1656 2988
Q 1909 3294 2193 3439
Q 2478 3584 2822 3584
Q 3428 3584 3742 3212
Q 4056 2841 4056 2131
z
" transform="scale(0.015625)"/>
      <path id="DejaVuSans-Bold-46" d="M 3366 3391
L 3366 2478
Q 3138 2634 2908 2709
Q 2678 2784 2431 2784
Q 1963 2784 1702 2511
Q 1441 2238 1441 1747
Q 1441 1256 1702 982
Q 1963 709 2431 709
Q 2694 709 2930 787
Q 3166 866 3366 1019
L 3366 103
Q 3103 6 2833 -42
Q 2563 -91 2291 -91
Q 1344 -91 809 395
Q 275 881 275 1747
Q 275 2613 809 3098
Q 1344 3584 2291 3584
Q 2566 3584 2833 3536
Q 3100 3488 3366 3391
z
" transform="scale(0.015625)"/>
      <path id="DejaVuSans-Bold-13ab" d="M 3078 4863
L 4206 4863
L 4206 3950
L 3078 3950
L 3078 4863
z
M 2847 4863
L 2847 4128
L 2228 4128
Q 1994 4128 1903 4042
Q 1813 3956 1813 3744
L 1813 3500
L 4206 3500
L 4206 0
L 3078 0
L 3078 2700
L 1813 2700
L 1813 0
L 684 0
L 684 2700
L 134 2700
L 134 3500
L 684 3500
L 684 3744
Q 684 4316 1003 4589
Q 1322 4863 1991 4863
L 2847 4863
z
" transform="scale(0.015625)"/>
      <path id="DejaVuSans-Bold-4f" d="M 538 4863
L 1656 4863
L 1656 0
L 538 0
L 538 4863
z
" transform="scale(0.015625)"/>
     </defs>
     <use xlink:href="#DejaVuSans-Bold-26"/>
     <use xlink:href="#DejaVuSans-Bold-33" transform="translate(73.390625 0)"/>
     <use xlink:href="#DejaVuSans-Bold-38" transform="translate(146.6875 0)"/>
     <use xlink:href="#DejaVuSans-Bold-3" transform="translate(227.890625 0)"/>
     <use xlink:href="#DejaVuSans-Bold-53" transform="translate(262.703125 0)"/>
     <use xlink:href="#DejaVuSans-Bold-48" transform="translate(334.28125 0)"/>
     <use xlink:href="#DejaVuSans-Bold-55" transform="translate(402.109375 0)"/>
     <use xlink:href="#DejaVuSans-Bold-49" transform="translate(451.421875 0)"/>
     <use xlink:href="#DejaVuSans-Bold-52" transform="translate(494.921875 0)"/>
     <use xlink:href="#DejaVuSans-Bold-55" transform="translate(563.625 0)"/>
     <use xlink:href="#DejaVuSans-Bold-50" transform="translate(612.9375 0)"/>
     <use xlink:href="#DejaVuSans-Bold-44" transform="translate(717.140625 0)"/>
     <use xlink:href="#DejaVuSans-Bold-51" transform="translate(784.625 0)"/>
     <use xlink:href="#DejaVuSans-Bold-46" transform="translate(855.8125 0)"/>
     <use xlink:href="#DejaVuSans-Bold-48" transform="translate(915.09375 0)"/>
     <use xlink:href="#DejaVuSans-Bold-3" transform="translate(982.921875 0)"/>
     <use xlink:href="#DejaVuSans-Bold-53" transform="translate(1017.734375 0)"/>
     <use xlink:href="#DejaVuSans-Bold-55" transform="translate(1089.3125 0)"/>
     <use xlink:href="#DejaVuSans-Bold-52" transform="translate(1138.625 0)"/>
     <use xlink:href="#DejaVuSans-Bold-13ab" transform="translate(1207.328125 0)"/>
     <use xlink:href="#DejaVuSans-Bold-4f" transform="translate(1281.453125 0)"/>
     <use xlink:href="#DejaVuSans-Bold-48" transform="translate(1315.734375 0)"/>
    </g>
   </g>
   <g id="legend_1">
    <g id="line2d_30">
     <path d="M 317.270072 368.696635
L 327.270072 368.696635
L 337.270072 368.696635
" style="fill: none; stroke: #64748b; stroke-width: 2.4; stroke-linecap: square"/>
    </g>
    <g id="text_17">
     <!-- Vec -->
     <g transform="translate(345.270072 372.196635) scale(0.1 -0.1)">
      <defs>
       <path id="DejaVuSans-39" d="M 1831 0
L 50 4666
L 709 4666
L 2188 738
L 3669 4666
L 4325 4666
L 2547 0
L 1831 0
z
" transform="scale(0.015625)"/>
      </defs>
      <use xlink:href="#DejaVuSans-39"/>
      <use xlink:href="#DejaVuSans-48" transform="translate(60.640625 0)"/>
      <use xlink:href="#DejaVuSans-46" transform="translate(122.171875 0)"/>
     </g>
    </g>
    <g id="line2d_31">
     <path d="M 382.985697 368.696635
L 392.985697 368.696635
L 402.985697 368.696635
" style="fill: none; stroke: #e11d48; stroke-width: 2.4; stroke-linecap: square"/>
    </g>
    <g id="text_18">
     <!-- JackVec -->
     <g transform="translate(410.985697 372.196635) scale(0.1 -0.1)">
      <defs>
       <path id="DejaVuSans-2d" d="M 628 4666
L 1259 4666
L 1259 325
Q 1259 -519 939 -900
Q 619 -1281 -91 -1281
L -331 -1281
L -331 -750
L -134 -750
Q 284 -750 456 -515
Q 628 -281 628 325
L 628 4666
z
" transform="scale(0.015625)"/>
      </defs>
      <use xlink:href="#DejaVuSans-2d"/>
      <use xlink:href="#DejaVuSans-44" transform="translate(29.5 0)"/>
      <use xlink:href="#DejaVuSans-46" transform="translate(90.78125 0)"/>
      <use xlink:href="#DejaVuSans-4e" transform="translate(145.765625 0)"/>
      <use xlink:href="#DejaVuSans-39" transform="translate(203.671875 0)"/>
      <use xlink:href="#DejaVuSans-48" transform="translate(264.3125 0)"/>
      <use xlink:href="#DejaVuSans-46" transform="translate(325.84375 0)"/>
     </g>
    </g>
    <g id="line2d_32">
     <path d="M 469.06851 368.696635
L 479.06851 368.696635
L 489.06851 368.696635
" style="fill: none; stroke: #7c3aed; stroke-width: 2.4; stroke-linecap: square"/>
    </g>
    <g id="text_19">
     <!-- ThinVec -->
     <g transform="translate(497.06851 372.196635) scale(0.1 -0.1)">
      <defs>
       <path id="DejaVuSans-37" d="M -19 4666
L 3928 4666
L 3928 4134
L 2272 4134
L 2272 0
L 1638 0
L 1638 4134
L -19 4134
L -19 4666
z
" transform="scale(0.015625)"/>
      </defs>
      <use xlink:href="#DejaVuSans-37"/>
      <use xlink:href="#DejaVuSans-4b" transform="translate(61.078125 0)"/>
      <use xlink:href="#DejaVuSans-4c" transform="translate(124.453125 0)"/>
      <use xlink:href="#DejaVuSans-51" transform="translate(152.234375 0)"/>
      <use xlink:href="#DejaVuSans-39" transform="translate(215.609375 0)"/>
      <use xlink:href="#DejaVuSans-48" transform="translate(276.25 0)"/>
      <use xlink:href="#DejaVuSans-46" transform="translate(337.78125 0)"/>
     </g>
    </g>
    <g id="line2d_33">
     <path d="M 556.345072 368.696635
L 566.345072 368.696635
L 576.345072 368.696635
" style="fill: none; stroke: #0284c7; stroke-width: 2.4; stroke-linecap: square"/>
    </g>
    <g id="text_20">
     <!-- SmallVec4 -->
     <g transform="translate(584.345072 372.196635) scale(0.1 -0.1)">
      <defs>
       <path id="DejaVuSans-36" d="M 3425 4513
L 3425 3897
Q 3066 4069 2747 4153
Q 2428 4238 2131 4238
Q 1616 4238 1336 4038
Q 1056 3838 1056 3469
Q 1056 3159 1242 3001
Q 1428 2844 1947 2747
L 2328 2669
Q 3034 2534 3370 2195
Q 3706 1856 3706 1288
Q 3706 609 3251 259
Q 2797 -91 1919 -91
Q 1588 -91 1214 -16
Q 841 59 441 206
L 441 856
Q 825 641 1194 531
Q 1563 422 1919 422
Q 2459 422 2753 634
Q 3047 847 3047 1241
Q 3047 1584 2836 1778
Q 2625 1972 2144 2069
L 1759 2144
Q 1053 2284 737 2584
Q 422 2884 422 3419
Q 422 4038 858 4394
Q 1294 4750 2059 4750
Q 2388 4750 2728 4690
Q 3069 4631 3425 4513
z
" transform="scale(0.015625)"/>
      </defs>
      <use xlink:href="#DejaVuSans-36"/>
      <use xlink:href="#DejaVuSans-50" transform="translate(63.484375 0)"/>
      <use xlink:href="#DejaVuSans-44" transform="translate(160.890625 0)"/>
      <use xlink:href="#DejaVuSans-4f" transform="translate(222.171875 0)"/>
      <use xlink:href="#DejaVuSans-4f" transform="translate(249.953125 0)"/>
      <use xlink:href="#DejaVuSans-39" transform="translate(277.734375 0)"/>
      <use xlink:href="#DejaVuSans-48" transform="translate(338.375 0)"/>
      <use xlink:href="#DejaVuSans-46" transform="translate(399.90625 0)"/>
      <use xlink:href="#DejaVuSans-17" transform="translate(454.890625 0)"/>
     </g>
    </g>
    <g id="line2d_34">
     <path d="M 656.196635 368.696635
L 666.196635 368.696635
L 676.196635 368.696635
" style="fill: none; stroke: #059669; stroke-width: 2.4; stroke-linecap: square"/>
    </g>
    <g id="text_21">
     <!-- SmallVec8 -->
     <g transform="translate(684.196635 372.196635) scale(0.1 -0.1)">
      <use xlink:href="#DejaVuSans-36"/>
      <use xlink:href="#DejaVuSans-50" transform="translate(63.484375 0)"/>
      <use xlink:href="#DejaVuSans-44" transform="translate(160.890625 0)"/>
      <use xlink:href="#DejaVuSans-4f" transform="translate(222.171875 0)"/>
      <use xlink:href="#DejaVuSans-4f" transform="translate(249.953125 0)"/>
      <use xlink:href="#DejaVuSans-39" transform="translate(277.734375 0)"/>
      <use xlink:href="#DejaVuSans-48" transform="translate(338.375 0)"/>
      <use xlink:href="#DejaVuSans-46" transform="translate(399.90625 0)"/>
      <use xlink:href="#DejaVuSans-1b" transform="translate(454.890625 0)"/>
     </g>
    </g>
   </g>
  </g>
 </g>
 <defs>
  <clipPath id="ped24299dbe">
   <rect x="39.904146" y="39.15774" width="705.144051" height="344.441239"/>
  </clipPath>
 </defs>
</svg>
